<?xml version="1.0" encoding="UTF-8"?>
<svg width="25px" height="22px" viewBox="0 0 25 22" version="1.1" xmlns="http://www.w3.org/2000/svg" xmlns:xlink="http://www.w3.org/1999/xlink">
    <!-- Generator: sketchtool 64 (101010) - https://sketch.com -->
    <title>9F60969A-6ADF-4357-B15E-40C1793E0EE8</title>
    <desc>Created with sketchtool.</desc>
    <g id="proposta" stroke="none" stroke-width="1" fill="none" fill-rule="evenodd">
        <g id="Dettagli" transform="translate(-1086.000000, -438.000000)" fill="#221259">
            <g id="ARROW" transform="translate(1086.000000, 438.000000)">
                <path d="M14.4536561,0.342046579 L14.5606602,0.439339828 L24.8137085,10.6923882 L14.5606602,20.9454365 C13.9748737,21.5312229 13.0251263,21.5312229 12.4393398,20.9454365 C11.8880114,20.3941081 11.8555803,19.5203782 12.3420466,18.9311202 L12.4393398,18.8241161 L19.071,12.192 L1.5,12.1923882 C0.671572875,12.1923882 4.62867309e-14,11.5208153 4.61852778e-14,10.6923882 C4.60838248e-14,9.86396103 0.671572875,9.19238816 1.5,9.19238816 L19.071,9.192 L12.4393398,2.56066017 C11.8880114,2.00933176 11.8555803,1.13560188 12.3420466,0.546343885 L12.4393398,0.439339828 C12.9906682,-0.111988584 13.8643981,-0.144419667 14.4536561,0.342046579 Z" id="ARROW-SVG"></path>
            </g>
        </g>
    </g>
</svg>