<?xml version="1.0" encoding="UTF-8"?>
<svg width="24px" height="24px" viewBox="0 0 24 24" version="1.1" xmlns="http://www.w3.org/2000/svg" xmlns:xlink="http://www.w3.org/1999/xlink">
    <!-- Generator: sketchtool 64 (101010) - https://sketch.com -->
    <title>1945E97C-C9F5-4392-9B16-473CB17FB509</title>
    <desc>Created with sketchtool.</desc>
    <g id="Footer" stroke="none" stroke-width="1" fill="none" fill-rule="evenodd">
        <g id="Footer---mobile-2" transform="translate(-223.000000, -519.000000)" fill="#000000" fill-rule="nonzero">
            <path d="M230.500366,538.828125 L227.219116,538.828125 L227.219116,528.234375 L230.500366,528.234375 L230.500366,538.828125 Z M230.827759,524.859192 C230.827759,523.798462 229.967163,522.9375 228.906982,522.9375 C227.842773,522.9375 226.984375,523.798462 226.984375,524.859192 C226.984375,525.920288 227.842773,526.78125 228.906982,526.78125 C229.967163,526.78125 230.827759,525.920288 230.827759,524.859192 Z M242.78125,532.999878 C242.78125,530.156067 242.180481,528.046875 238.858398,528.046875 C237.262085,528.046875 236.190552,528.845215 235.753113,529.675415 L235.75,528.234375 L232.5625,528.234375 L232.5625,538.828125 L235.75,538.828125 L235.75,533.568237 C235.75,532.190735 236.100647,530.856262 237.808105,530.856262 C239.49231,530.856262 239.546875,532.431519 239.546875,533.655762 L239.546875,538.828125 L242.78125,538.828125 L242.78125,532.999878 Z M247,540.1875 L247,521.8125 C247,520.261597 245.738403,519 244.1875,519 L225.8125,519 C224.261597,519 223,520.261597 223,521.8125 L223,540.1875 C223,541.738403 224.261597,543 225.8125,543 L244.1875,543 C245.738403,543 247,541.738403 247,540.1875 Z M244.1875,520.875 C244.704407,520.875 245.125,521.295593 245.125,521.8125 L245.125,540.1875 C245.125,540.704407 244.704407,541.125 244.1875,541.125 L225.8125,541.125 C225.295593,541.125 224.875,540.704407 224.875,540.1875 L224.875,521.8125 C224.875,521.295593 225.295593,520.875 225.8125,520.875 L244.1875,520.875 Z" id="ic_linkedin-copy"></path>
        </g>
    </g>
</svg>