<?xml version="1.0" encoding="UTF-8"?>
<svg width="398px" height="130px" viewBox="0 0 398 130" version="1.1" xmlns="http://www.w3.org/2000/svg" xmlns:xlink="http://www.w3.org/1999/xlink">
    <!-- Generator: Sketch 57.1 (83088) - https://sketch.com -->
    <title>jungleslogo_black</title>
    <desc>Created with Sketch.</desc>
    <g id="jungleslogo_black" stroke="none" stroke-width="1" fill="none" fill-rule="evenodd">
        <g id="jungleslogo" fill-rule="nonzero">
            <path d="M36.7360976,93.0356098 L36.7360976,96.0160976 C36.7360976,103.65122 36.2034146,109.246504 35.1380488,112.801951 C34.1019684,116.319208 32.265744,119.548879 29.7731707,122.238049 C27.7038979,124.626385 25.0952575,126.487215 22.1634146,127.666341 C18.9398383,128.913072 15.5044204,129.520462 12.0487805,129.454634 C8.36227642,129.454634 5.45577236,128.695772 3.32926829,127.178049 C1.53742529,125.929684 0.385298002,123.956433 0.178885059,121.78238 C-0.0275278841,119.608326 0.732665105,117.453512 2.25756098,115.890244 C3.57899188,114.477805 5.4347608,113.688067 7.36878049,113.715122 C8.61666827,113.696168 9.83288961,114.108295 10.8121951,114.881951 C11.8141463,115.661951 13.1141463,117.418537 14.7185366,120.151707 C14.8453659,120.367317 15.0673171,120.741463 15.3526829,121.261463 C16.5702439,123.430244 17.8512195,124.514634 19.1956098,124.514634 C20.54,124.514634 21.4933333,124.026341 22.0556098,123.049756 C22.5756098,122.073171 22.8356098,119.633821 22.8356098,115.731707 L22.8356098,114.361951 L22.8356098,14.477561 C22.8707903,12.494535 22.7285982,10.5123345 22.4107317,8.55463415 C22.2042115,7.24527011 21.7524002,5.98665289 21.0790244,4.84487805 C20.6523847,4.1617183 20.0442096,3.61062824 19.322439,3.25317073 C18.4833104,2.85956914 17.5776609,2.62724101 16.6526829,2.56829268 L16.6526829,0.0317073171 L42.804878,0.0317073171 L42.804878,2.56829268 C40.5980488,2.65707317 39.0274797,3.58926829 38.0931707,5.36487805 C37.1588618,7.1404878 36.6917073,10.1780488 36.6917073,14.477561 L36.7360976,93.0356098 Z" id="Path" fill="#000000"></path>
            <path d="M87.9687805,97.1068293 L87.9687805,86.8209756 C80.422439,91.9321951 75.0765854,95.2403252 71.9312195,96.7453659 C68.7858537,98.2504065 66.063252,98.9986992 63.7634146,98.9902439 C61.0036083,99.1010596 58.3653592,97.8494913 56.7053659,95.6419512 C55.0143089,93.4013008 54.1687805,90.3320325 54.1687805,86.4341463 L54.1687805,51.2770732 C54.1687805,48.4149593 53.7671545,46.3772358 52.9639024,45.1639024 C52.1606504,43.9505691 50.782439,43.2339837 48.8292683,43.0141463 L48.8292683,41.0673171 C54.3758,39.5646779 59.3922857,36.5424869 63.3131707,32.3414634 L65.4565854,32.3414634 L65.4565854,80.5682927 C65.4565854,83.7390244 65.9343089,85.9521951 66.8897561,87.2078049 C67.8452033,88.4634146 69.4495935,89.097561 71.7029268,89.1102439 C74.1414541,88.9963139 76.5410834,88.4554315 78.7926829,87.5121951 C81.9807965,86.2705929 85.0516874,84.7468198 87.9687805,82.9590244 L87.9687805,53.5536585 C87.9687805,49.9601626 87.6009756,47.4341463 86.8653659,45.9756098 C86.0697553,44.4802998 84.6279683,43.4364086 82.9590244,43.1473171 L82.8956098,40.8707317 C85.3840762,40.0928171 87.7738771,39.0287918 90.0170732,37.7 C92.6131611,36.1383657 95.0625112,34.3448641 97.335122,32.3414634 L99.4214634,32.3414634 L99.4214634,83.2380488 C99.4214634,87.2247154 99.8865041,90.0339837 100.816585,91.6658537 C101.74878,93.2892683 103.321463,94.2595122 105.534634,94.557561 L105.598049,97.0941463 L87.9687805,97.1068293 Z" id="Path" fill="#000000"></path>
            <path d="M109.770732,97.1004878 L109.770732,94.5639024 C111.306203,94.5878904 112.734768,93.7802296 113.505854,92.4521951 C114.266829,91.1247154 114.647317,88.9876423 114.647317,86.0409756 L114.647317,51.1629268 C114.647317,48.2585366 114.266829,46.2313821 113.505854,45.0814634 C112.744878,43.9315447 111.389919,43.2487805 109.440976,43.0331707 L109.440976,41.0165854 C112.226608,40.3394151 114.893037,39.2424801 117.34878,37.7634146 C119.812002,36.2725147 122.057039,34.4478888 124.02,32.3414634 L126.1,32.3414634 L126.1,44.3902439 L128.573171,42.8302439 C139.417073,35.8377236 146.724553,32.3414634 150.49561,32.3414634 C153.249958,32.2291122 155.885385,33.4698703 157.553659,35.6643902 C159.274309,37.8712195 160.13252,40.9066667 160.128293,44.7707317 L160.128293,86.0473171 C160.128293,89.0869919 160.496098,91.2452033 161.231707,92.5219512 C161.967317,93.7902439 163.229268,94.4814634 165.004878,94.5702439 L165.004878,97.1068293 L143.729268,97.1068293 L143.729268,94.5702439 C145.51122,94.4814634 146.779512,93.8029268 147.534146,92.5219512 C148.28878,91.2409756 148.67561,89.084878 148.67561,86.0473171 L148.67561,50.4907317 C148.67561,47.0663415 148.231707,44.7242276 147.343902,43.4643902 C146.449756,42.1960976 144.877073,41.5619512 142.625854,41.5619512 C140.934797,41.5619512 138.711057,42.1052033 135.954634,43.1917073 C132.561826,44.5893555 129.269177,46.2187296 126.1,48.0682927 L126.1,86.0282927 C126.1,89.0679675 126.478374,91.2261789 127.235122,92.5029268 C127.996098,93.7712195 129.26439,94.462439 131.04,94.5512195 L131.04,97.0878049 L109.770732,97.1004878 Z" id="Path" fill="#000000"></path>
            <path d="M181.270732,100.112683 C177.630732,99.1149593 174.834146,97.7494309 172.880976,96.0160976 C170.927805,94.2785366 169.849756,92.2682927 169.82439,89.9663415 C169.754634,84.4112195 176.882439,76.96 182.285366,74.3663415 C178.874625,72.5184861 176.011396,69.8039961 173.98439,66.4965854 C172.02378,63.2459722 171.011183,59.5118847 171.060976,55.7160976 C171.060976,49.2097561 173.521463,43.6905691 178.442439,39.1585366 C183.363415,34.6265041 189.46813,32.3541463 196.756585,32.3414634 C199.94402,32.2938045 203.104891,32.927276 206.027805,34.1995122 C209.005909,35.6665196 211.66018,37.714901 213.834146,40.2239024 C216.270631,37.9926579 218.881002,35.9590702 221.640488,34.142439 C223.593659,32.9502439 225.261463,32.3541463 226.656585,32.3541463 C228.157184,32.3668243 229.588032,32.9895294 230.62,34.0790244 C231.719812,35.0667373 232.356678,36.4692213 232.376585,37.9473171 C232.4123,39.3452449 231.815914,40.684783 230.753171,41.5936585 C229.61436,42.5659024 228.153122,43.0771096 226.656585,43.0268293 C225.646806,43.0189567 224.649481,42.8030855 223.726829,42.3926829 C222.444099,41.7968868 221.222819,41.0768629 220.080488,40.2429268 L219.953659,40.2429268 C219.464192,40.3000007 219.000583,40.4933543 218.61561,40.8009756 C217.782453,41.4099829 216.99018,42.0730349 216.243902,42.7858537 C217.288069,44.2831145 218.058831,45.9534583 218.520488,47.7195122 C219.116897,49.7475967 219.413854,51.8519261 219.401951,53.9658537 C219.536303,60.2913388 216.866704,66.3524893 212.109268,70.5234146 C207.255935,74.9074797 201.161789,77.0995122 193.826829,77.0995122 C192.413322,77.0951562 191.002675,76.9721224 189.609756,76.7317073 C188.449789,76.5721814 187.308885,76.2959849 186.20439,75.9073171 C183.293659,77.0614634 178.353659,82.9717073 178.353659,85.5907317 C178.353659,87.3029268 179.089268,88.0131707 180.560488,88.8121951 C182.031707,89.6112195 184.81561,90.3658537 188.893171,91.0570732 C190.495447,91.319187 192.750894,91.7102439 195.659512,92.2302439 C209.149919,94.5258537 217.066179,96.3902439 219.408293,97.8234146 C221.879848,99.2250384 223.968432,101.21344 225.489756,103.613171 C226.804826,105.954611 227.462178,108.608125 227.392195,111.292683 C227.392195,116.788618 224.671707,121.191707 219.230732,124.501951 C213.789756,127.812195 206.391382,129.458862 197.03561,129.442207 C187.798211,129.442207 180.630244,128.196911 175.531707,125.706829 C170.433171,123.216748 167.896585,119.735285 167.921577,115.262439 C167.974492,112.366609 169.105062,109.594451 171.092683,107.487805 C173.151545,105.086504 176.544228,102.62813 181.270732,100.112683 Z M185.170732,100.892683 C182.852021,102.093842 180.885295,103.877007 179.463415,106.067317 C178.165198,108.214357 177.505313,110.686727 177.560976,113.195122 C177.488202,116.917516 179.329048,120.417278 182.437561,122.466341 C185.688618,124.778862 190.068455,125.93935 195.577073,125.947805 C202.82748,125.947805 208.369919,124.91626 212.20439,122.853171 C216.038862,120.790081 217.958211,117.830732 217.962439,113.975122 C217.962439,110.757886 216.182602,108.305854 212.622927,106.619024 C209.063252,104.932195 199.91252,103.023415 185.170732,100.892683 Z M182.894146,55.4370732 C182.894146,61.8123577 183.881301,66.5494309 185.85561,69.6482927 C187.829919,72.7471545 190.833659,74.2986992 194.866829,74.3029268 C198.984553,74.3029268 202.127805,72.6773984 204.296585,69.4263415 C206.465366,66.1752846 207.549756,61.4678049 207.549756,55.3039024 C207.549756,48.6284553 206.530894,43.597561 204.493171,40.2112195 C202.675353,36.9515527 199.179599,34.9904003 195.450244,35.1380488 C191.154959,35.1380488 187.984228,36.7952846 185.938049,40.1097561 C183.89187,43.4242276 182.87935,48.5333333 182.900488,55.4370732 L182.894146,55.4370732 Z" id="Shape" fill="#000000"></path>
            <path d="M231.31122,97.1004878 L231.31122,94.5639024 C232.846691,94.5878904 234.275256,93.7802296 235.046341,92.4521951 C235.807317,91.1247154 236.187805,88.9876423 236.187805,86.0409756 L236.187805,18.7390244 C236.187805,15.8346341 235.807317,13.8074797 235.046341,12.657561 C234.291707,11.5097561 232.934634,10.8439024 230.981463,10.6726829 L230.981463,8.65609756 C236.559927,7.2158356 241.616688,4.22575088 245.566829,0.0317073171 L247.95122,0.0317073171 L247.95122,86.0409756 C247.95122,89.0806504 248.319024,91.2388618 249.054634,92.5156098 C249.796585,93.7839024 251.052195,94.475122 252.827805,94.5639024 L252.827805,97.1004878 L231.31122,97.1004878 Z" id="Path" fill="#000000"></path>
            <path d="M307.110732,83.117561 L309.647317,84.7409756 C306.523089,89.4294309 302.965528,92.9764228 298.974634,95.3819512 C295.034195,97.7724465 290.507283,99.0216283 285.898537,98.9902439 C278.297437,99.1494357 271.052393,95.7740368 266.28439,89.8521951 C261.141463,83.7580488 258.573171,76.864878 258.573171,67.2765854 C258.573171,56.5214634 260.898374,48.0091057 265.54878,41.7395122 C270.199187,35.4699187 276.504715,32.3372358 284.465366,32.3414548 C291.364878,32.3414548 296.884065,34.9985366 301.022927,40.3126829 C305.161789,45.6268293 307.451057,53.0547967 307.890732,62.5965854 L270.216098,62.5965854 C270.393659,71.924878 272.365854,78.3043902 276.139024,83.6439024 C279.912195,88.9834146 284.947317,91.6468293 291.231707,91.6468293 C294.252362,91.673103 297.230414,90.9334986 299.887805,89.4970732 C302.717138,87.9019639 305.178321,85.7281716 307.110732,83.117561 L307.110732,83.117561 Z M270.216098,58.4936585 L289.671707,58.4936585 C292.838211,58.4936585 294.778699,58.2822764 295.493171,57.8595122 C296.209756,57.4473171 296.57122,56.6356098 296.57122,55.4243902 C296.57122,49.0829268 295.463577,44.2211382 293.248293,40.8390244 C291.254439,37.5664046 287.648158,35.6262399 283.818537,35.7658537 C279.303415,35.7658537 275.908618,37.6091057 273.634146,41.2956098 C271.359675,44.9821138 270.220325,50.5118699 270.216098,57.884878 L270.216098,58.4936585 Z" id="Shape" fill="#000000"></path>
            <path d="M314.536585,90.2073171 L318.97561,77.1312195 L321.252195,77.6512195 C322.42748,83.117561 324.661789,87.455122 327.955122,90.6639024 C330.949766,93.7499659 335.069572,95.4871506 339.369756,95.4770732 C342.405671,95.5591424 345.346966,94.416448 347.53122,92.3063415 C349.681179,90.2992999 350.875628,87.4722853 350.816098,84.5317073 C350.880564,82.0533935 349.969727,79.6487837 348.279512,77.835122 C346.588455,76.0087805 342.534146,73.6011382 336.116585,70.6121951 L335.596585,70.3521951 C323.103902,64.4546341 316.857561,58.76 316.857561,51.384878 C316.857561,45.664878 318.76,41.056748 322.564878,37.5604878 C326.369756,34.0642276 331.345691,32.3245528 337.492683,32.341221 C340.670585,32.3603764 343.816252,32.9800426 346.763902,34.1678049 C350.113718,35.5228141 353.257773,37.3392369 356.104878,39.5643902 L352.001951,51.2770732 L349.858537,50.7317073 C348.818537,46.0009756 347.049268,42.3356098 344.550732,39.7356098 C342.261079,37.2216099 339.009549,35.8010833 335.609268,35.8292683 C332.743952,35.7611757 329.963867,36.806833 327.853659,38.7463415 C325.792122,40.5615739 324.632673,43.1912044 324.682927,45.937561 C324.659135,48.477708 325.709332,50.9097443 327.574634,52.6341463 C329.477073,54.5365854 332.825366,56.1980488 337.942927,58.404878 L339.566341,59.1214634 C352.972195,65.0253659 359.859024,71.2653659 359.859024,78.9829268 C359.859024,84.9692683 357.78748,89.8056911 353.64439,93.4921951 C349.501301,97.1786992 344.02439,99.0219512 337.213659,99.0219512 C333.366852,98.9815346 329.56174,98.220082 325.99561,96.7770732 C321.895036,95.1182614 318.03984,92.9079773 314.536585,90.2073171 L314.536585,90.2073171 Z" id="Path" fill="#000000"></path>
            <rect id="Rectangle" fill="#FE5F42" x="370.664878" y="72.0263415" width="26.9639024" height="26.9639024" rx="13.4819512"></rect>
        </g>
    </g>
</svg>