<?xml version="1.0" encoding="UTF-8"?>
<svg width="24px" height="24px" viewBox="0 0 24 24" version="1.1" xmlns="http://www.w3.org/2000/svg" xmlns:xlink="http://www.w3.org/1999/xlink">
    <!-- Generator: sketchtool 64 (101010) - https://sketch.com -->
    <title>177E9BC5-3D73-4BDF-969B-D4AF7EB2E97E</title>
    <desc>Created with sketchtool.</desc>
    <g id="Footer" stroke="none" stroke-width="1" fill="none" fill-rule="evenodd">
        <g id="Footer---mobile-2" transform="translate(-271.000000, -519.000000)" fill="#000000" fill-rule="nonzero">
            <g id="ic_facebook-copy" transform="translate(271.000000, 519.000000)">
                <path d="M19,0 C21.6633571,0 23.8394745,2.0819273 23.9915143,4.70625424 L24,5 L24,19 C24,21.6623929 21.9190026,23.8394056 19.2938454,23.9915106 L19,24 L5,24 C2.33760714,24 0.160594388,21.9180727 0.00848938593,19.2937458 L0,19 L0,5 C0,2.33760714 2.0819273,0.160594388 4.70625424,0.00848938593 L5,0 L19,0 Z M19,1.88571429 L5,1.88571429 C3.36642868,1.88571429 2.02600001,3.14446439 1.89604107,4.74463752 L1.88571429,5 L1.88571429,19 C1.88571429,20.6335713 3.14446439,21.974 4.74463752,22.1039589 L5,22.1142857 L19,22.1142857 C20.6341378,22.1142857 21.9740566,20.8559 22.1039632,19.2554171 L22.1142857,19 L22.1142857,5 C22.1142857,3.36604515 20.8560738,2.02596166 19.2554432,1.8960382 L19,1.88571429 Z" id="Shape"></path>
                <path d="M16,7.21666318 L14.076,7.21666318 C13.461,7.21666318 13,7.46866318 13,8.10566318 L13,9.21666318 L16,9.21666318 L15.762,12.2166632 L13,12.2166632 L13,20.2166632 L10,20.2166632 L10,12.2166632 L8,12.2166632 L8,9.21666318 L10,9.21666318 L10,7.29366318 C10,5.27166318 11.064,4.21666318 13.461,4.21666318 L16,4.21666318 L16,7.21666318 Z" id="Shape"></path>
            </g>
        </g>
    </g>
</svg>