<?xml version="1.0" encoding="UTF-8"?>
<svg width="24px" height="24px" viewBox="0 0 24 24" version="1.1" xmlns="http://www.w3.org/2000/svg" xmlns:xlink="http://www.w3.org/1999/xlink">
    <!-- Generator: sketchtool 64 (101010) - https://sketch.com -->
    <title>ABC769C8-BC38-4378-BD40-84E0379BCAE8</title>
    <desc>Created with sketchtool.</desc>
    <g id="Footer" stroke="none" stroke-width="1" fill="none" fill-rule="evenodd">
        <g id="Footer---mobile-2" transform="translate(-319.000000, -519.000000)" fill="#000000" fill-rule="nonzero">
            <path d="M331.236673,543 C331.157202,543 331.077731,543 330.997711,542.999634 C329.116414,543.004211 327.378127,542.956421 325.687633,542.853515 C324.137769,542.759216 322.723042,542.223631 321.596168,541.304805 C320.508847,540.418206 319.766326,539.219411 319.389297,537.742112 C319.06116,536.455975 319.043764,535.19346 319.027101,533.972326 C319.015015,533.096164 319.002564,532.057953 319,531.002164 C319.002564,529.94198 319.015015,528.903769 319.027101,528.027607 C319.043764,526.806656 319.06116,525.54414 319.389297,524.257821 C319.766326,522.780522 320.508847,521.581727 321.596168,520.695128 C322.723042,519.776302 324.137769,519.240717 325.687816,519.146417 C327.37831,519.043695 329.116963,518.995721 331.002289,519.000299 C332.884136,518.996271 334.621873,519.043695 336.312367,519.146417 C337.862231,519.240717 339.276958,519.776302 340.403832,520.695128 C341.491336,521.581727 342.233674,522.780522 342.610703,524.257821 C342.93884,525.543957 342.956236,526.806656 342.972899,528.027607 C342.984985,528.903769 342.99762,529.94198 343,530.997769 L343,531.002164 C342.99762,532.057953 342.984985,533.096164 342.972899,533.972326 C342.956236,535.193276 342.939024,536.455792 342.610703,537.742112 C342.233674,539.219411 341.491336,540.418206 340.403832,541.304805 C339.276958,542.223631 337.862231,542.759216 336.312367,542.853515 C334.69347,542.952026 333.030442,543 331.236673,543 Z M330.997711,541.124629 C332.848429,541.129023 334.547712,541.082331 336.198471,540.981989 C337.370391,540.910761 338.386482,540.53045 339.218911,539.851676 C339.988349,539.224172 340.518277,538.358446 340.793861,537.278487 C341.067065,536.207867 341.082813,535.058327 341.098011,533.946691 C341.109913,533.076388 341.122365,532.045502 341.124928,530.999966 C341.122365,529.954248 341.109913,528.923544 341.098011,528.053242 C341.082813,526.941605 341.067065,525.792066 340.793861,524.721262 C340.518277,523.641303 339.988349,522.775578 339.218911,522.148074 C338.386482,521.469483 337.370391,521.089172 336.198471,521.017944 C334.547712,520.917419 332.848429,520.871093 331.002106,520.875121 C329.151754,520.870726 327.452288,520.917419 325.801529,521.017944 C324.629609,521.089172 323.613518,521.469483 322.781089,522.148074 C322.011651,522.775578 321.481723,523.641303 321.206139,524.721262 C320.932935,525.792066 320.917187,526.941422 320.901989,528.053242 C320.890087,528.924277 320.877635,529.955713 320.875072,531.002164 C320.877635,532.044037 320.890087,533.075656 320.901989,533.946691 C320.917187,535.058327 320.932935,536.207867 321.206139,537.278487 C321.481723,538.358446 322.011651,539.224172 322.781089,539.851676 C323.613518,540.530267 324.629609,540.910578 325.801529,540.981806 C327.452288,541.082331 329.152121,541.129206 330.997711,541.124629 Z M330.953032,536.859358 C327.722196,536.859358 325.093433,534.230871 325.093433,530.999966 C325.093433,527.769061 327.722196,525.140575 330.953032,525.140575 C334.184051,525.140575 336.81263,527.769061 336.81263,530.999966 C336.81263,534.230871 334.184051,536.859358 330.953032,536.859358 Z M330.953032,527.01558 C328.756048,527.01558 326.968505,528.803061 326.968505,530.999966 C326.968505,533.196872 328.756048,534.984353 330.953032,534.984353 C333.150198,534.984353 334.937559,533.196872 334.937559,530.999966 C334.937559,528.803061 333.150198,527.01558 330.953032,527.01558 L330.953032,527.01558 Z M337.468905,523.26557 C336.692325,523.26557 336.062602,523.895088 336.062602,524.671824 C336.062602,525.448559 336.692325,526.078078 337.468905,526.078078 C338.245668,526.078078 338.875209,525.448559 338.875209,524.671824 C338.875209,523.895088 338.245668,523.26557 337.468905,523.26557 Z" id="ic_instagram-copy"></path>
        </g>
    </g>
</svg>