<?xml version="1.0" encoding="UTF-8"?>
<svg width="18px" height="14px" viewBox="0 0 18 14" version="1.1" xmlns="http://www.w3.org/2000/svg" xmlns:xlink="http://www.w3.org/1999/xlink">
    <title>238EB07E-238A-4F73-A567-0DB5A88ED36C</title>
    <g id="Footer" stroke="none" stroke-width="1" fill="none" fill-rule="evenodd">
        <g transform="translate(-1360.000000, -837.000000)" fill="#000000" fill-rule="nonzero" id="ic_youtube">
            <path d="M1374.64064,838.140711 C1371.98823,837.952961 1366.01512,837.953227 1363.35917,838.140724 L1363.11575,838.16277 C1361.35432,838.36151 1361.02098,839.354007 1360.99999,843.995479 L1361.00869,844.877275 C1361.0748,848.958362 1361.51062,849.72807 1363.35915,849.859275 L1364.08856,849.902248 C1366.9882,850.045512 1372.20927,850.031393 1374.64064,849.859289 L1374.88408,849.837242 C1376.64568,849.63849 1376.97902,848.645993 1377.00001,844.004521 L1376.99131,843.122725 C1376.9252,839.041638 1376.48937,838.271929 1374.64064,838.140711 Z M1374.71125,837.143206 C1377.637,837.35087 1377.97825,839.189511 1378,844 L1377.99131,844.886627 C1377.9238,849.046155 1377.44744,850.663113 1374.71125,850.856794 C1372.00825,851.048124 1365.98875,851.047346 1363.28875,850.856794 C1360.42525,850.653548 1360.03744,848.88799 1360.00184,844.303029 L1360,844 C1360.02175,839.180956 1360.366,837.350093 1363.28875,837.143206 C1365.988,836.952654 1372.00825,836.951876 1374.71125,837.143206 Z M1366.75,840.888932 L1366.75,847.111068 L1372.75,843.994556 L1366.75,840.888932 Z"></path>
        </g>
    </g>
</svg>